# Rhino

g object_1
v 619.9585571289062 178.6076354980469 845.6867065429688
v 958.3067016601562 351.0046081542969 845.6867065429688
v 351.4439086914062 447.1222229003906 845.6867065429688
v 523.8409423828125 785.4703979492188 845.6867065429688
v 898.9027099609375 726.06640625 845.6867065429688
v 351.4439086914062 447.1222229003906 845.6867065429688
v 523.8409423828125 785.4703979492188 845.6867065429688
v 433.2064514160156 963.3505249023438 522.6631469726562
v 204.7942810058594 734.9383544921875 323.0235900878906
v 154.2622680664062 415.8917236328125 522.6631469726562
v 619.9585571289062 178.6076354980469 845.6867065429688
v 351.4439086914062 447.1222229003906 845.6867065429688
v 154.2622680664062 415.8917236328125 522.6631469726562
v 300.9118957519531 128.0756072998047 323.0235900878906
v 588.72802734375 -18.57402992248535 522.6631469726562
v 958.3067016601562 351.0046081542969 845.6867065429688
v 619.9585571289062 178.6076354980469 845.6867065429688
v 588.72802734375 -18.57402992248535 522.6631469726562
v 907.774658203125 31.9579906463623 323.0235900878906
v 1136.186767578125 260.3701477050781 522.6631469726562
v 898.9027099609375 726.06640625 845.6867065429688
v 958.3067016601562 351.0046081542969 845.6867065429688
v 1136.186767578125 260.3701477050781 522.6631469726562
v 1186.718872070312 579.4168090820312 323.0235900878906
v 1040.069213867188 867.23291015625 522.6631469726562
v 523.8409423828125 785.4703979492188 845.6867065429688
v 898.9027099609375 726.06640625 845.6867065429688
v 433.2064514160156 963.3505249023438 522.6631469726562
v 1040.069213867188 867.23291015625 522.6631469726562
v 752.2530517578125 1013.882568359375 323.0235900878906
v 442.078369140625 269.2420959472656 0
v 817.1401977539062 209.838134765625 0
v 382.6744384765625 644.3038940429688 0
v 721.0225830078125 816.7008666992188 0
v 989.5371704101562 548.186279296875 0
v 433.2064514160156 963.3505249023438 522.6631469726562
v 204.7942810058594 734.9383544921875 323.0235900878906
v 752.2530517578125 1013.882568359375 323.0235900878906
v 382.6744384765625 644.3038940429688 0
v 721.0225830078125 816.7008666992188 0
v 204.7942810058594 734.9383544921875 323.0235900878906
v 154.2622680664062 415.8917236328125 522.6631469726562
v 300.9118957519531 128.0756072998047 323.0235900878906
v 442.078369140625 269.2420959472656 0
v 382.6744384765625 644.3038940429688 0
v 300.9118957519531 128.0756072998047 323.0235900878906
v 588.72802734375 -18.57402992248535 522.6631469726562
v 907.774658203125 31.9579906463623 323.0235900878906
v 817.1401977539062 209.838134765625 0
v 442.078369140625 269.2420959472656 0
v 907.774658203125 31.9579906463623 323.0235900878906
v 1136.186767578125 260.3701477050781 522.6631469726562
v 1186.718872070312 579.4168090820312 323.0235900878906
v 989.5371704101562 548.186279296875 0
v 817.1401977539062 209.838134765625 0
v 1186.718872070312 579.4168090820312 323.0235900878906
v 1040.069213867188 867.23291015625 522.6631469726562
v 752.2530517578125 1013.882568359375 323.0235900878906
v 721.0225830078125 816.7008666992188 0
v 989.5371704101562 548.186279296875 0
vt 0.7524314522743225 0.2057751268148422
vt 0.6056399941444397 0.2537589371204376
vt 0.7524314522743225 0.05049627274274826
vt 0.6056399941444397 0.002512464765459299
vt 0.5149179697036743 0.1281357109546661
vt 0.002498103771358728 0.3928951323032379
vt 0.05020763725042343 0.2461037337779999
vt 0.2045989334583282 0.2461037337779999
vt 0.2523084580898285 0.3928951323032379
vt 0.1274032890796661 0.4836171865463257
vt 0.002498103771358728 0.8803523182868958
vt 0.05020763725042343 0.7335609197616577
vt 0.2045989334583282 0.7335609197616577
vt 0.2523084580898285 0.8803523182868958
vt 0.1274032890796661 0.9710744023323059
vt 0.002498103771358728 0.149166539311409
vt 0.05020763725042343 0.002375134965404868
vt 0.2045989334583282 0.002375134965404868
vt 0.2523084580898285 0.149166539311409
vt 0.1274032890796661 0.239888608455658
vt 0.002498103771358728 0.636623740196228
vt 0.05020763725042343 0.4898323118686676
vt 0.2045989334583282 0.4898323118686676
vt 0.2523084580898285 0.636623740196228
vt 0.1274032890796661 0.7273457646369934
vt 0.2587695121765137 0.8803523182868958
vt 0.3064790368080139 0.7335609197616577
vt 0.383674681186676 0.9710744023323059
vt 0.4608703255653381 0.7335609197616577
vt 0.5085798501968384 0.8803523182868958
vt 0.9961600303649902 0.2057751268148422
vt 0.8493686318397522 0.2537589371204376
vt 0.9961600303649902 0.05049627274274826
vt 0.8493686318397522 0.002512464765459299
vt 0.758646547794342 0.1281357109546661
vt 0.5085798501968384 0.3928951323032379
vt 0.383674681186676 0.4836171865463257
vt 0.4608703255653381 0.2461037337779999
vt 0.2587695121765137 0.3928951323032379
vt 0.3064790368080139 0.2461037337779999
vt 0.4608703255653381 0.4898323118686676
vt 0.5085798501968384 0.636623740196228
vt 0.383674681186676 0.7273457646369934
vt 0.2587695121765137 0.636623740196228
vt 0.3064790368080139 0.4898323118686676
vt 0.7524314522743225 0.6932322978973389
vt 0.6056399941444397 0.7412161231040955
vt 0.5149179697036743 0.615592896938324
vt 0.6056399941444397 0.4899696409702301
vt 0.7524314522743225 0.5379534363746643
vt 0.4608703255653381 0.002375134965404868
vt 0.5085798501968384 0.149166539311409
vt 0.383674681186676 0.239888608455658
vt 0.2587695121765137 0.149166539311409
vt 0.3064790368080139 0.002375134965404868
vt 0.9961600303649902 0.6932322978973389
vt 0.8493686318397522 0.7412161231040955
vt 0.758646547794342 0.615592896938324
vt 0.8493686318397522 0.4899696409702301
vt 0.9961600303649902 0.5379534363746643
vn 0 0 1
vn 0 0 1
vn 0 0 1
vn 0 0 1
vn 0 0 1
vn -0.7969404458999634 0.4060614407062531 0.4472135901451111
vn -0.7969404458999634 0.4060614407062531 0.4472135901451111
vn -0.7969404458999634 0.4060614407062531 0.4472135901451111
vn -0.7969404458999634 0.4060614407062531 0.4472135901451111
vn -0.7969404458999634 0.4060614407062531 0.4472135901451111
vn -0.6324555277824402 -0.6324555277824402 0.4472135901451111
vn -0.6324555277824402 -0.6324555277824402 0.4472135901451111
vn -0.6324555277824402 -0.6324555277824402 0.4472135901451111
vn -0.6324555277824402 -0.6324555277824402 0.4472135901451111
vn -0.6324555277824402 -0.6324555277824402 0.4472135901451111
vn 0.4060614407062531 -0.7969404458999634 0.4472135901451111
vn 0.4060614407062531 -0.7969404458999634 0.4472135901451111
vn 0.4060614407062531 -0.7969404458999634 0.4472135901451111
vn 0.4060614407062531 -0.7969404458999634 0.4472135901451111
vn 0.4060614407062531 -0.7969404458999634 0.4472135901451111
vn 0.8834152817726135 0.1399192363023758 0.4472135901451111
vn 0.8834152817726135 0.1399192363023758 0.4472135901451111
vn 0.8834152817726135 0.1399192363023758 0.4472135901451111
vn 0.8834152817726135 0.1399192363023758 0.4472135901451111
vn 0.8834152817726135 0.1399192363023758 0.4472135901451111
vn 0.1399192363023758 0.8834152817726135 0.4472135901451111
vn 0.1399192363023758 0.8834152817726135 0.4472135901451111
vn 0.1399192363023758 0.8834152817726135 0.4472135901451111
vn 0.1399192363023758 0.8834152817726135 0.4472135901451111
vn 0.1399192363023758 0.8834152817726135 0.4472135901451111
vn 0 0 -1
vn 0 0 -1
vn 0 0 -1
vn 0 0 -1
vn 0 0 -1
vn -0.4060614407062531 0.7969404458999634 -0.4472135901451111
vn -0.4060614407062531 0.7969404458999634 -0.4472135901451111
vn -0.4060614407062531 0.7969404458999634 -0.4472135901451111
vn -0.4060614407062531 0.7969404458999634 -0.4472135901451111
vn -0.4060614407062531 0.7969404458999634 -0.4472135901451111
vn -0.8834152817726135 -0.1399192363023758 -0.4472135901451111
vn -0.8834152817726135 -0.1399192363023758 -0.4472135901451111
vn -0.8834152817726135 -0.1399192363023758 -0.4472135901451111
vn -0.8834152817726135 -0.1399192363023758 -0.4472135901451111
vn -0.8834152817726135 -0.1399192363023758 -0.4472135901451111
vn -0.1399192363023758 -0.8834152817726135 -0.4472135901451111
vn -0.1399192363023758 -0.8834152817726135 -0.4472135901451111
vn -0.1399192363023758 -0.8834152817726135 -0.4472135901451111
vn -0.1399192363023758 -0.8834152817726135 -0.4472135901451111
vn -0.1399192363023758 -0.8834152817726135 -0.4472135901451111
vn 0.7969404458999634 -0.4060614407062531 -0.4472135901451111
vn 0.7969404458999634 -0.4060614407062531 -0.4472135901451111
vn 0.7969404458999634 -0.4060614407062531 -0.4472135901451111
vn 0.7969404458999634 -0.4060614407062531 -0.4472135901451111
vn 0.7969404458999634 -0.4060614407062531 -0.4472135901451111
vn 0.6324555277824402 0.6324555277824402 -0.4472135901451111
vn 0.6324555277824402 0.6324555277824402 -0.4472135901451111
vn 0.6324555277824402 0.6324555277824402 -0.4472135901451111
vn 0.6324555277824402 0.6324555277824402 -0.4472135901451111
vn 0.6324555277824402 0.6324555277824402 -0.4472135901451111
f 5/5/5 4/4/4 3/3/3
f 2/2/2 5/5/5 1/1/1
f 3/3/3 1/1/1 5/5/5
f 10/10/10 6/6/6 7/7/7
f 10/10/10 7/7/7 9/9/9
f 8/8/8 9/9/9 7/7/7
f 15/15/15 11/11/11 12/12/12
f 15/15/15 12/12/12 14/14/14
f 13/13/13 14/14/14 12/12/12
f 20/20/20 16/16/16 17/17/17
f 20/20/20 17/17/17 19/19/19
f 18/18/18 19/19/19 17/17/17
f 25/25/25 21/21/21 22/22/22
f 24/24/24 25/25/25 23/23/23
f 22/22/22 23/23/23 25/25/25
f 28/28/28 26/26/26 27/27/27
f 28/28/28 27/27/27 30/30/30
f 29/29/29 30/30/30 27/27/27
f 31/31/31 33/33/33 34/34/34
f 35/35/35 32/32/32 34/34/34
f 31/31/31 34/34/34 32/32/32
f 36/36/36 40/40/40 39/39/39
f 37/37/37 36/36/36 39/39/39
f 38/38/38 40/40/40 36/36/36
f 42/42/42 45/45/45 44/44/44
f 43/43/43 42/42/42 44/44/44
f 41/41/41 45/45/45 42/42/42
f 47/47/47 50/50/50 49/49/49
f 48/48/48 47/47/47 49/49/49
f 46/46/46 50/50/50 47/47/47
f 52/52/52 55/55/55 54/54/54
f 53/53/53 52/52/52 54/54/54
f 51/51/51 55/55/55 52/52/52
f 57/57/57 60/60/60 59/59/59
f 58/58/58 57/57/57 59/59/59
f 56/56/56 60/60/60 57/57/57
