# Rhino

g object_1
v 949.5371704101562 384.4701843261719 60
v 949.5371704101562 384.4701843261719 585
v 949.5371704101562 634.47021484375 60
v 949.5371704101562 634.47021484375 585
v 949.5371704101562 634.47021484375 60
v 949.5371704101562 634.47021484375 585
v 29.53717994689941 634.47021484375 60
v 29.53717994689941 634.47021484375 585
v 29.53717994689941 634.47021484375 60
v 29.53717994689941 634.47021484375 585
v 29.53717994689941 384.4701843261719 60
v 29.53717994689941 384.4701843261719 585
v 29.53717994689941 384.4701843261719 60
v 29.53717994689941 384.4701843261719 585
v 949.5371704101562 384.4701843261719 60
v 949.5371704101562 384.4701843261719 585
v 949.5371704101562 384.4701843261719 60
v 949.5371704101562 634.47021484375 60
v 29.53717994689941 634.47021484375 60
v 29.53717994689941 384.4701843261719 60
v 949.5371704101562 384.4701843261719 585
v 949.5371704101562 634.47021484375 585
v 29.53717994689941 634.47021484375 585
v 29.53717994689941 384.4701843261719 585
vt 0 0
vt 0 0.7560970187187195
vt 0.1068376079201698 0
vt 0.1068376079201698 0.7560970187187195
vt 0.1068376079201698 0
vt 0.1068376079201698 0.7560970187187195
vt 0.5 0
vt 0.5 0.7560970187187195
vt 0.5 0
vt 0.5 0.7560970187187195
vt 0.6068376302719116 0
vt 0.6068376302719116 0.7560970187187195
vt 0.6068376302719116 0
vt 0.6068376302719116 0.7560970187187195
vt 1 0
vt 1 0.7560970187187195
vt 0.3931623995304108 1
vt 0.3931623995304108 0.7560977339744568
vt 0 0.7560977339744568
vt 4.858411909733461e-17 1
vt 1 0.7560977339744568
vt 1 1
vt 0.6068376302719116 1
vt 0.6068376302719116 0.7560977339744568
vn 1 0 0
vn 1 0 0
vn 1 0 0
vn 1 0 0
vn 0 1 0
vn 0 1 0
vn 0 1 0
vn 0 1 0
vn -1 -4.547473724858043e-16 0
vn -1 -4.547473724858043e-16 0
vn -1 -4.547473724858043e-16 0
vn -1 -4.547473724858043e-16 0
vn 0 -1 0
vn 0 -1 0
vn 0 -1 0
vn 0 -1 0
vn 0 0 -1
vn 0 0 -1
vn 0 0 -1
vn 0 0 -1
vn 0 0 1
vn 0 0 1
vn 0 0 1
vn 0 0 1
f 1/1/1 3/3/3 4/4/4 2/2/2
f 5/5/5 7/7/7 8/8/8 6/6/6
f 9/9/9 11/11/11 12/12/12 10/10/10
f 13/13/13 15/15/15 16/16/16 14/14/14
f 18/18/18 20/20/20 19/19/19
f 20/20/20 18/18/18 17/17/17
f 22/22/22 23/23/23 24/24/24
f 24/24/24 21/21/21 22/22/22
g object_2
v 959.5371704101562 374.4701843261719 50
v 959.5371704101562 374.4701843261719 60
v 959.5371704101562 644.47021484375 50
v 959.5371704101562 644.47021484375 60
v 959.5371704101562 644.47021484375 50
v 959.5371704101562 644.47021484375 60
v 19.53717994689941 644.47021484375 50
v 19.53717994689941 644.47021484375 60
v 19.53717994689941 644.47021484375 50
v 19.53717994689941 644.47021484375 60
v 19.53717994689941 374.4701843261719 50
v 19.53717994689941 374.4701843261719 60
v 19.53717994689941 374.4701843261719 50
v 19.53717994689941 374.4701843261719 60
v 959.5371704101562 374.4701843261719 50
v 959.5371704101562 374.4701843261719 60
v 959.5371704101562 374.4701843261719 50
v 959.5371704101562 644.47021484375 50
v 19.53717994689941 644.47021484375 50
v 19.53717994689941 374.4701843261719 50
v 959.5371704101562 374.4701843261719 60
v 959.5371704101562 644.47021484375 60
v 19.53717994689941 644.47021484375 60
v 19.53717994689941 374.4701843261719 60
vt 0 0
vt 0 0.5090906620025635
vt 0.1115702465176582 0
vt 0.1115702465176582 0.5090906620025635
vt 0.1115702465176582 0
vt 0.1115702465176582 0.5090906620025635
vt 0.5 0
vt 0.5 0.5090906620025635
vt 0.5 0
vt 0.5 0.5090906620025635
vt 0.6115702390670776 0
vt 0.6115702390670776 0.5090906620025635
vt 0.6115702390670776 0
vt 0.6115702390670776 0.5090906620025635
vt 1 0
vt 1 0.5090906620025635
vt 0.3884297609329224 1
vt 0.3884297609329224 0.5090911388397217
vt 0 0.5090911388397217
vt 0 1
vt 1 0.5090911388397217
vt 1 1
vt 0.6115702390670776 1
vt 0.6115702390670776 0.5090911388397217
vn 1 0 0
vn 1 0 0
vn 1 0 0
vn 1 0 0
vn 0 1 0
vn 0 1 0
vn 0 1 0
vn 0 1 0
vn -1 0 0
vn -1 0 0
vn -1 0 0
vn -1 0 0
vn 0 -1 0
vn 0 -1 0
vn 0 -1 0
vn 0 -1 0
vn 0 0 -1
vn 0 0 -1
vn 0 0 -1
vn 0 0 -1
vn 0 0 1
vn 0 0 1
vn 0 0 1
vn 0 0 1
f 25/25/25 27/27/27 28/28/28 26/26/26
f 29/29/29 31/31/31 32/32/32 30/30/30
f 33/33/33 35/35/35 36/36/36 34/34/34
f 37/37/37 39/39/39 40/40/40 38/38/38
f 41/41/41 44/44/44 43/43/43
f 43/43/43 42/42/42 41/41/41
f 45/45/45 47/47/47 48/48/48
f 47/47/47 45/45/45 46/46/46
g object_3
v 19.53717994689941 644.47021484375 50
v 19.53717994689941 374.4701843261719 50
v 959.5371704101562 644.47021484375 50
v 959.5371704101562 374.4701843261719 50
v 959.5371704101562 509.4701843261719 50
v 489.5371704101562 644.47021484375 50
v 19.53717994689941 509.4701843261719 50
v 489.5371704101562 374.4701843261719 50
v -10.46282005310059 674.47021484375 25
v -10.46282005310059 344.4701843261719 25
v 989.5371704101562 674.47021484375 25
v 989.5371704101562 344.4701843261719 25
v 489.5371704101562 344.4701843261719 25
v 989.5371704101562 509.4701843261719 25
v 489.5371704101562 674.47021484375 25
v -10.46282005310059 509.4701843261719 25
v 989.5371704101562 674.47021484375 25
v 959.5371704101562 644.47021484375 50
v -10.46282005310059 674.47021484375 25
v 19.53717994689941 644.47021484375 50
v 489.5371704101562 644.47021484375 50
v 489.5371704101562 674.47021484375 25
v 959.5371704101562 644.47021484375 50
v 959.5371704101562 374.4701843261719 50
v 989.5371704101562 674.47021484375 25
v 989.5371704101562 344.4701843261719 25
v 959.5371704101562 509.4701843261719 50
v 989.5371704101562 509.4701843261719 25
v -10.46282005310059 344.4701843261719 25
v 19.53717994689941 374.4701843261719 50
v 989.5371704101562 344.4701843261719 25
v 959.5371704101562 374.4701843261719 50
v 489.5371704101562 374.4701843261719 50
v 489.5371704101562 344.4701843261719 25
v 19.53717994689941 644.47021484375 50
v 19.53717994689941 374.4701843261719 50
v -10.46282005310059 674.47021484375 25
v -10.46282005310059 344.4701843261719 25
v 19.53717994689941 509.4701843261719 50
v -10.46282005310059 509.4701843261719 25
vt 0.08965826034545898 0.128360390663147
vt 0.08965826034545898 0.374152660369873
vt 0.9453794956207275 0.128360390663147
vt 0.9453794956207275 0.374152660369873
vt 0.9453794956207275 0.25125652551651
vt 0.5175188779830933 0.128360390663147
vt 0.08965826034545898 0.25125652551651
vt 0.5175188779830933 0.374152660369873
vt 0.08965826034545898 0.4802519977092743
vt 0.08965826034545898 0.7806647419929504
vt 0.99853515625 0.4802519977092743
vt 0.99853515625 0.7806647419929504
vt 0.5440967082977295 0.7806647419929504
vt 0.99853515625 0.6304583549499512
vt 0.5440967082977295 0.4802519977092743
vt 0.08965826034545898 0.6304583549499512
vt 0.08819341659545898 0
vt 0.04482913017272949 0
vt 0.08819341659545898 0.908876895904541
vt 0.04482913017272949 0.908876895904541
vt 0.04482913017272949 0.4544384479522705
vt 0.08819341659545898 0.4544384479522705
vt 0.3900710344314575 0.06418019533157349
vt 0.08965826034545898 0.06418019533157349
vt 0.3900710344314575 0.109009325504303
vt 0.08965826034545898 0.109009325504303
vt 0.2398646473884583 0.06418019533157349
vt 0.2398646473884583 0.109009325504303
vt 0.04336428642272949 0
vt 0 0
vt 0.04336428642272949 0.908876895904541
vt 0 0.908876895904541
vt 0 0.4544384479522705
vt 0.04336428642272949 0.4544384479522705
vt 0.3900710344314575 0
vt 0.08965826034545898 0
vt 0.3900710344314575 0.04482913017272949
vt 0.08965826034545898 0.04482913017272949
vt 0.2398646473884583 0
vt 0.2398646473884583 0.04482913017272949
vn 0 0 1
vn 0 0 1
vn 0 0 1
vn 0 0 1
vn 0 0 1
vn 0 0 1
vn 0 0 1
vn 0 0 1
vn 0 0 -1
vn 0 0 -1
vn 0 0 -1
vn 0 0 -1
vn 0 0 -1
vn 0 0 -1
vn 0 0 -1
vn 0 0 -1
vn 0 0.6401844024658203 0.7682212591171265
vn 0 0.6401844024658203 0.7682212591171265
vn 0 0.6401844024658203 0.7682212591171265
vn 0 0.6401844024658203 0.7682212591171265
vn 0 0.6401844024658203 0.7682212591171265
vn 0 0.6401844024658203 0.7682212591171265
vn 0.6401844024658203 0 0.7682212591171265
vn 0.6401844024658203 0 0.7682212591171265
vn 0.6401844024658203 0 0.7682212591171265
vn 0.6401844024658203 0 0.7682212591171265
vn 0.6401844024658203 0 0.7682212591171265
vn 0.6401844024658203 0 0.7682212591171265
vn 0 -0.6401844024658203 0.7682212591171265
vn 0 -0.6401844024658203 0.7682212591171265
vn 0 -0.6401844024658203 0.7682212591171265
vn 0 -0.6401844024658203 0.7682212591171265
vn 0 -0.6401844024658203 0.7682212591171265
vn 0 -0.6401844024658203 0.7682212591171265
vn -0.6401844024658203 0 0.7682212591171265
vn -0.6401844024658203 0 0.7682212591171265
vn -0.6401844024658203 0 0.7682212591171265
vn -0.6401844024658203 0 0.7682212591171265
vn -0.6401844024658203 0 0.7682212591171265
vn -0.6401844024658203 0 0.7682212591171265
f 55/55/55 54/54/54 49/49/49
f 55/55/55 50/50/50 56/56/56
f 56/56/56 54/54/54 55/55/55
f 56/56/56 52/52/52 53/53/53 54/54/54
f 51/51/51 54/54/54 53/53/53
f 64/64/64 57/57/57 63/63/63
f 64/64/64 61/61/61 58/58/58
f 61/61/61 64/64/64 63/63/63
f 61/61/61 63/63/63 62/62/62 60/60/60
f 59/59/59 62/62/62 63/63/63
f 66/66/66 65/65/65 70/70/70 69/69/69
f 67/67/67 68/68/68 69/69/69 70/70/70
f 75/75/75 76/76/76 73/73/73 71/71/71
f 72/72/72 74/74/74 76/76/76 75/75/75
f 77/77/77 82/82/82 81/81/81 78/78/78
f 80/80/80 81/81/81 82/82/82 79/79/79
f 87/87/87 83/83/83 85/85/85 88/88/88
f 84/84/84 87/87/87 88/88/88 86/86/86
g object_4
v 989.5371704101562 344.4701843261719 0
v 989.5371704101562 344.4701843261719 25
v 989.5371704101562 674.47021484375 0
v 989.5371704101562 674.47021484375 25
v 989.5371704101562 674.47021484375 0
v 989.5371704101562 674.47021484375 25
v -10.46282005310059 674.47021484375 0
v -10.46282005310059 674.47021484375 25
v -10.46282005310059 674.47021484375 0
v -10.46282005310059 674.47021484375 25
v -10.46282005310059 344.4701843261719 0
v -10.46282005310059 344.4701843261719 25
v -10.46282005310059 344.4701843261719 0
v -10.46282005310059 344.4701843261719 25
v 989.5371704101562 344.4701843261719 0
v 989.5371704101562 344.4701843261719 25
v 989.5371704101562 344.4701843261719 0
v 989.5371704101562 674.47021484375 0
v -10.46282005310059 674.47021484375 0
v -10.46282005310059 344.4701843261719 0
v 989.5371704101562 344.4701843261719 25
v 989.5371704101562 674.47021484375 25
v -10.46282005310059 674.47021484375 25
v -10.46282005310059 344.4701843261719 25
vt 0 0
vt 0 0.5182479023933411
vt 0.1240601539611816 0
vt 0.1240601539611816 0.5182479023933411
vt 0.1240601539611816 0
vt 0.1240601539611816 0.5182479023933411
vt 0.5 0
vt 0.5 0.5182479023933411
vt 0.5 0
vt 0.5 0.5182479023933411
vt 0.6240601539611816 0
vt 0.6240601539611816 0.5182479023933411
vt 0.6240601539611816 0
vt 0.6240601539611816 0.5182479023933411
vt 1 0
vt 1 0.5182479023933411
vt 0.3759398460388184 1
vt 0.3759398460388184 0.518248438835144
vt 0 0.518248438835144
vt 0 1
vt 1 0.518248438835144
vt 1 1
vt 0.6240601539611816 1
vt 0.6240601539611816 0.518248438835144
vn 1 0 0
vn 1 0 0
vn 1 0 0
vn 1 0 0
vn 0 1 0
vn 0 1 0
vn 0 1 0
vn 0 1 0
vn -1 0 0
vn -1 0 0
vn -1 0 0
vn -1 0 0
vn 0 -1 0
vn 0 -1 0
vn 0 -1 0
vn 0 -1 0
vn 0 0 -1
vn 0 0 -1
vn 0 0 -1
vn 0 0 -1
vn 0 0 1
vn 0 0 1
vn 0 0 1
vn 0 0 1
f 89/89/89 91/91/91 92/92/92 90/90/90
f 93/93/93 95/95/95 96/96/96 94/94/94
f 97/97/97 99/99/99 100/100/100 98/98/98
f 101/101/101 103/103/103 104/104/104 102/102/102
f 105/105/105 108/108/108 107/107/107
f 107/107/107 106/106/106 105/105/105
f 109/109/109 111/111/111 112/112/112
f 111/111/111 109/109/109 110/110/110
