# Rhino

g object_1
v 496.1910705566406 840.3911743164062 0
v 204.7798767089844 335.6521911621094 0
v 350.4854736328125 588.0216674804688 0
v 350.4854736328125 419.7753295898438 270.2355346679688
v 496.1910705566406 503.8984985351562 540.4710693359375
v 496.1910705566406 672.1448364257812 270.2355346679688
v 204.7798767089844 335.6521911621094 0
v 787.602294921875 335.6521911621094 0
v 496.1910705566406 503.8984985351562 540.4710693359375
v 350.4854736328125 419.7753295898438 270.2355346679688
v 496.1910705566406 335.6521911621094 0
v 641.8966674804688 419.7753295898438 270.2355346679688
v 787.602294921875 335.6521911621094 0
v 496.1910705566406 840.3911743164062 0
v 496.1910705566406 672.1448364257812 270.2355346679688
v 496.1910705566406 503.8984985351562 540.4710693359375
v 641.8966674804688 419.7753295898438 270.2355346679688
v 641.8966674804688 588.0216674804688 0
v 787.602294921875 335.6521911621094 0
v 204.7798767089844 335.6521911621094 0
v 496.1910705566406 840.3911743164062 0
v 350.4854736328125 588.0216674804688 0
v 496.1910705566406 335.6521911621094 0
v 641.8966674804688 588.0216674804688 0
vt 0.5 0.4856134653091431
vt 0.99853515625 0.4856134653091431
vt 0.749267578125 0.4856134653091431
vt 0.8739013671875 0.7276877760887146
vt 0.749267578125 0.9697620868682861
vt 0.6246337890625 0.7276877760887146
vt 0.5 0
vt 0.99853515625 0
vt 0.749267578125 0.4841486215591431
vt 0.6246337890625 0.2420743107795715
vt 0.749267578125 0
vt 0.8739013671875 0.2420743107795715
vt 0 0.4578071236610413
vt 0.49853515625 0.4578071236610413
vt 0.3739013671875 0.7006138563156128
vt 0.249267578125 0.9434205889701843
vt 0.1246337890625 0.7006138563156128
vt 0.249267578125 0.4578071236610413
vt 0.49853515625 0
vt 0 0
vt 0.249267578125 0.4330126941204071
vt 0.1246337890625 0.2165063470602036
vt 0.249267578125 0
vt 0.3739013671875 0.2165063470602036
vn -0.8268868923187256 0.4774033725261688 0.2972272634506226
vn -0.8268868923187256 0.4774033725261688 0.2972272634506226
vn -0.8268868923187256 0.4774033725261688 0.2972272634506226
vn -0.8268868923187256 0.4774033725261688 0.2972272634506226
vn -0.8268868923187256 0.4774033725261688 0.2972272634506226
vn -0.8268868923187256 0.4774033725261688 0.2972272634506226
vn -3.180145231099072e-16 -0.9548067450523376 0.2972272634506226
vn -3.180145231099072e-16 -0.9548067450523376 0.2972272634506226
vn -3.724941470300869e-16 -0.9548067450523376 0.2972272634506226
vn -3.724941470300869e-16 -0.9548067450523376 0.2972272634506226
vn -3.724941470300869e-16 -0.9548067450523376 0.2972272634506226
vn -3.724941470300869e-16 -0.9548067450523376 0.2972272634506226
vn 0.8268868923187256 0.4774033725261688 0.2972272634506226
vn 0.8268868923187256 0.4774033725261688 0.2972272634506226
vn 0.8268868923187256 0.4774033725261688 0.2972272634506226
vn 0.8268868923187256 0.4774033725261688 0.2972272634506226
vn 0.8268868923187256 0.4774033725261688 0.2972272634506226
vn 0.8268868923187256 0.4774033725261688 0.2972272634506226
vn 0 0 -1
vn 0 0 -1
vn 0 0 -1
vn 0 0 -1
vn 0 0 -1
vn 0 0 -1
f 6/6/6 1/1/1 3/3/3
f 4/4/4 6/6/6 3/3/3
f 5/5/5 6/6/6 4/4/4
f 2/2/2 4/4/4 3/3/3
f 11/11/11 10/10/10 7/7/7
f 12/12/12 9/9/9 10/10/10
f 12/12/12 11/11/11 8/8/8
f 10/10/10 11/11/11 12/12/12
f 17/17/17 13/13/13 18/18/18
f 15/15/15 17/17/17 18/18/18
f 17/17/17 15/15/15 16/16/16
f 18/18/18 14/14/14 15/15/15
f 24/24/24 19/19/19 23/23/23
f 22/22/22 23/23/23 20/20/20
f 22/22/22 21/21/21 24/24/24
f 23/23/23 22/22/22 24/24/24
