# Rhino

g object_1
v 168.2622985839844 -864.7164306640625 288.6090698242188
v 368.2622985839844 -864.7164306640625 288.6090698242188
v 168.2622985839844 -799.3346557617188 223.2273101806641
v 368.2622985839844 -799.3346557617188 223.2273101806641
v 168.2622985839844 -799.3346557617188 223.2273101806641
v 368.2622985839844 -799.3346557617188 223.2273101806641
v 168.2622985839844 -706.8709106445312 223.2273101806641
v 368.2622985839844 -706.8709106445312 223.2273101806641
v 168.2622985839844 -706.8709106445312 223.2273101806641
v 368.2622985839844 -706.8709106445312 223.2273101806641
v 168.2622985839844 -641.4891357421875 288.6090698242188
v 368.2622985839844 -641.4891357421875 288.6090698242188
v 168.2622985839844 -641.4891357421875 288.6090698242188
v 368.2622985839844 -641.4891357421875 288.6090698242188
v 168.2622985839844 -641.4891357421875 381.0728454589844
v 368.2622985839844 -641.4891357421875 381.0728454589844
v 168.2622985839844 -641.4891357421875 381.0728454589844
v 368.2622985839844 -641.4891357421875 381.0728454589844
v 168.2622985839844 -706.8709106445312 446.4546203613281
v 368.2622985839844 -706.8709106445312 446.4546203613281
v 168.2622985839844 -706.8709106445312 446.4546203613281
v 368.2622985839844 -706.8709106445312 446.4546203613281
v 168.2622985839844 -799.3346557617188 446.4546203613281
v 368.2622985839844 -799.3346557617188 446.4546203613281
v 168.2622985839844 -799.3346557617188 446.4546203613281
v 368.2622985839844 -799.3346557617188 446.4546203613281
v 168.2622985839844 -864.7164306640625 381.0728454589844
v 368.2622985839844 -864.7164306640625 381.0728454589844
v 168.2622985839844 -864.7164306640625 381.0728454589844
v 368.2622985839844 -864.7164306640625 381.0728454589844
v 168.2622985839844 -864.7164306640625 288.6090698242188
v 368.2622985839844 -864.7164306640625 288.6090698242188
v 168.2622985839844 -864.7164306640625 288.6090698242188
v 168.2622985839844 -799.3346557617188 223.2273101806641
v 168.2622985839844 -706.8709106445312 223.2273101806641
v 168.2622985839844 -641.4891357421875 288.6090698242188
v 168.2622985839844 -641.4891357421875 381.0728454589844
v 168.2622985839844 -706.8709106445312 446.4546203613281
v 168.2622985839844 -799.3346557617188 446.4546203613281
v 168.2622985839844 -864.7164306640625 381.0728454589844
v 368.2622985839844 -864.7164306640625 288.6090698242188
v 368.2622985839844 -799.3346557617188 223.2273101806641
v 368.2622985839844 -706.8709106445312 223.2273101806641
v 368.2622985839844 -641.4891357421875 288.6090698242188
v 368.2622985839844 -641.4891357421875 381.0728454589844
v 368.2622985839844 -706.8709106445312 446.4546203613281
v 368.2622985839844 -799.3346557617188 446.4546203613281
v 368.2622985839844 -864.7164306640625 381.0728454589844
vt 0 0
vt 0 0.6546894907951355
vt 0.125 0
vt 0.125 0.6546894907951355
vt 0.125 0
vt 0.125 0.6546894907951355
vt 0.25 0
vt 0.25 0.6546894907951355
vt 0.25 0
vt 0.25 0.6546894907951355
vt 0.375 0
vt 0.375 0.6546894907951355
vt 0.375 0
vt 0.375 0.6546894907951355
vt 0.5 0
vt 0.5 0.6546894907951355
vt 0.5 0
vt 0.5 0.6546894907951355
vt 0.625 0
vt 0.625 0.6546894907951355
vt 0.625 0
vt 0.625 0.6546894907951355
vt 0.75 0
vt 0.75 0.6546894907951355
vt 0.75 0
vt 0.75 0.6546894907951355
vt 0.875 0
vt 0.875 0.6546894907951355
vt 0.875 0
vt 0.875 0.6546894907951355
vt 1 0
vt 1 0.6546894907951355
vt 0 0.8988610506057739
vt 0.0883883461356163 1
vt 0.2133883535861969 1
vt 0.3017767071723938 0.8988610506057739
vt 0.3017767071723938 0.7558290362358093
vt 0.2133883535861969 0.654690146446228
vt 0.0883883461356163 0.654690146446228
vt 0 0.7558290362358093
vt 0 0.7558290362358093
vt 0.0883883461356163 0.654690146446228
vt 0.2133883535861969 0.654690146446228
vt 0.3017767071723938 0.7558290362358093
vt 0.3017767071723938 0.8988610506057739
vt 0.2133883535861969 1
vt 0.0883883461356163 1
vt 0 0.8988610506057739
vn 0 -0.7071067690849304 -0.7071067690849304
vn 0 -0.7071067690849304 -0.7071067690849304
vn 0 -0.7071067690849304 -0.7071067690849304
vn 0 -0.7071067690849304 -0.7071067690849304
vn 0 -6.147641781998768e-16 -1
vn 0 -6.147641781998768e-16 -1
vn 0 -6.147641781998768e-16 -1
vn 0 -6.147641781998768e-16 -1
vn 0 0.7071067690849304 -0.7071067690849304
vn 0 0.7071067690849304 -0.7071067690849304
vn 0 0.7071067690849304 -0.7071067690849304
vn 0 0.7071067690849304 -0.7071067690849304
vn 0 1 -1.229528356399754e-15
vn 0 1 -1.229528356399754e-15
vn 0 1 -1.229528356399754e-15
vn 0 1 -1.229528356399754e-15
vn 0 0.7071067690849304 0.7071067690849304
vn 0 0.7071067690849304 0.7071067690849304
vn 0 0.7071067690849304 0.7071067690849304
vn 0 0.7071067690849304 0.7071067690849304
vn 0 0 1
vn 0 0 1
vn 0 0 1
vn 0 0 1
vn 0 -0.7071067690849304 0.7071067690849304
vn 0 -0.7071067690849304 0.7071067690849304
vn 0 -0.7071067690849304 0.7071067690849304
vn 0 -0.7071067690849304 0.7071067690849304
vn 0 -1 0
vn 0 -1 0
vn 0 -1 0
vn 0 -1 0
vn -1 0 0
vn -1 0 0
vn -1 0 0
vn -1 0 0
vn -1 0 0
vn -1 0 0
vn -1 0 0
vn -1 0 0
vn 1 0 0
vn 1 0 0
vn 1 0 0
vn 1 0 0
vn 1 0 0
vn 1 0 0
vn 1 0 0
vn 1 0 0
f 1/1/1 3/3/3 4/4/4 2/2/2
f 5/5/5 7/7/7 8/8/8 6/6/6
f 9/9/9 11/11/11 12/12/12 10/10/10
f 13/13/13 15/15/15 16/16/16 14/14/14
f 17/17/17 19/19/19 20/20/20 18/18/18
f 21/21/21 23/23/23 24/24/24 22/22/22
f 25/25/25 27/27/27 28/28/28 26/26/26
f 29/29/29 31/31/31 32/32/32 30/30/30
f 39/39/39 34/34/34 33/33/33
f 33/33/33 40/40/40 39/39/39
f 39/39/39 36/36/36 34/34/34
f 39/39/39 38/38/38 36/36/36
f 36/36/36 38/38/38 37/37/37
f 35/35/35 34/34/34 36/36/36
f 47/47/47 41/41/41 42/42/42
f 41/41/41 47/47/47 48/48/48
f 47/47/47 42/42/42 44/44/44
f 47/47/47 44/44/44 46/46/46
f 44/44/44 45/45/45 46/46/46
f 43/43/43 44/44/44 42/42/42
