# Rhino

g object_1
v 1121.2412109375 509.4701843261719 631.7039794921875
v 805.38916015625 825.3222045898438 631.7039794921875
v 489.5371704101562 1141.174194335938 631.7039794921875
v 489.5371704101562 509.4701843261719 0
v 805.38916015625 509.4701843261719 315.8519897460938
v 489.5371704101562 825.3222045898438 315.8519897460938
v 1121.2412109375 509.4701843261719 631.7039794921875
v 805.38916015625 509.4701843261719 315.8519897460938
v 489.5371704101562 509.4701843261719 0
v 489.5371704101562 -122.2337799072266 631.7039794921875
v 805.38916015625 193.6182098388672 631.7039794921875
v 489.5371704101562 193.6182098388672 315.8519897460938
v -142.1667938232422 509.4701843261719 631.7039794921875
v 173.6851959228516 509.4701843261719 315.8519897460938
v 489.5371704101562 509.4701843261719 0
v 489.5371704101562 1141.174194335938 631.7039794921875
v 173.6851959228516 825.3222045898438 631.7039794921875
v 489.5371704101562 825.3222045898438 315.8519897460938
v 489.5371704101562 509.4701843261719 0
v 489.5371704101562 193.6182098388672 315.8519897460938
v 489.5371704101562 -122.2337799072266 631.7039794921875
v -142.1667938232422 509.4701843261719 631.7039794921875
v 173.6851959228516 509.4701843261719 315.8519897460938
v 173.6851959228516 193.6182098388672 631.7039794921875
v 1121.2412109375 509.4701843261719 631.7039794921875
v 805.38916015625 825.3222045898438 631.7039794921875
v 489.5371704101562 1141.174194335938 631.7039794921875
v 489.5371704101562 509.4701843261719 1263.407958984375
v 805.38916015625 509.4701843261719 947.5559692382812
v 489.5371704101562 825.3222045898438 947.5559692382812
v 489.5371704101562 -122.2337799072266 631.7039794921875
v 805.38916015625 193.6182098388672 631.7039794921875
v 1121.2412109375 509.4701843261719 631.7039794921875
v 805.38916015625 509.4701843261719 947.5559692382812
v 489.5371704101562 509.4701843261719 1263.407958984375
v 489.5371704101562 193.6182098388672 947.5559692382812
v 489.5371704101562 1141.174194335938 631.7039794921875
v 173.6851959228516 825.3222045898438 631.7039794921875
v -142.1667938232422 509.4701843261719 631.7039794921875
v 173.6851959228516 509.4701843261719 947.5559692382812
v 489.5371704101562 509.4701843261719 1263.407958984375
v 489.5371704101562 825.3222045898438 947.5559692382812
v 489.5371704101562 -122.2337799072266 631.7039794921875
v 173.6851959228516 193.6182098388672 631.7039794921875
v -142.1667938232422 509.4701843261719 631.7039794921875
v 489.5371704101562 509.4701843261719 1263.407958984375
v 489.5371704101562 193.6182098388672 947.5559692382812
v 173.6851959228516 509.4701843261719 947.5559692382812
vt 0.619178295135498 0.3286148607730865
vt 0.4776709079742432 0.2472745627164841
vt 0.3361634910106659 0.1659342497587204
vt 0.619178295135498 0.003253612667322159
vt 0.619178295135498 0.1659342497587204
vt 0.4776709079742432 0.08459393680095673
vt 0.1659342497587204 0.9064029455184937
vt 0.08459393680095673 0.7656136155128479
vt 0.003253612667322159 0.6248242259025574
vt 0.3286148607730865 0.6248242259025574
vt 0.2472745627164841 0.7656136155128479
vt 0.1659342497587204 0.6248242259025574
vt 0.0028301568236202 0.1659342497587204
vt 0.1443375647068024 0.08459393680095673
vt 0.2858449816703796 0.003253612667322159
vt 0.2858449816703796 0.3286148607730865
vt 0.1443375647068024 0.2472745627164841
vt 0.2858449816703796 0.1659342497587204
vt 0.3365869522094727 0.6248242259025574
vt 0.499267578125 0.6248242259025574
vt 0.6619482040405273 0.6248242259025574
vt 0.499267578125 0.9064029455184937
vt 0.4179272651672363 0.7656136155128479
vt 0.5806078910827637 0.7656136155128479
vt 0.6619482040405273 0.336149126291275
vt 0.5806078910827637 0.4769384860992432
vt 0.499267578125 0.6177278161048889
vt 0.3365869522094727 0.336149126291275
vt 0.499267578125 0.336149126291275
vt 0.4179272651672363 0.4769384860992432
vt 0.9952815175056458 0.4581719636917114
vt 0.9139412045478821 0.5996793508529663
vt 0.8326008915901184 0.741186797618866
vt 0.7512605786323547 0.5996793508529663
vt 0.6699202656745911 0.4581719636917114
vt 0.8326008915901184 0.4581719636917114
vt 0.3286148607730865 0.336149126291275
vt 0.2472745627164841 0.4769384860992432
vt 0.1659342497587204 0.6177278161048889
vt 0.08459393680095673 0.4769384860992432
vt 0.003253612667322159 0.336149126291275
vt 0.1659342497587204 0.336149126291275
vt 0.9952815175056458 0.002830148441717029
vt 0.9139412045478821 0.1443375647068024
vt 0.8326008915901184 0.2858449816703796
vt 0.6699202656745911 0.002830148441717029
vt 0.8326008915901184 0.002830148441717029
vt 0.7512605786323547 0.1443375647068024
vn 0.5773502588272095 0.5773502588272095 -0.5773502588272095
vn 0.5773502588272095 0.5773502588272095 -0.5773502588272095
vn 0.5773502588272095 0.5773502588272095 -0.5773502588272095
vn 0.5773502588272095 0.5773502588272095 -0.5773502588272095
vn 0.5773502588272095 0.5773502588272095 -0.5773502588272095
vn 0.5773502588272095 0.5773502588272095 -0.5773502588272095
vn 0.5773502588272095 -0.5773502588272095 -0.5773502588272095
vn 0.5773502588272095 -0.5773502588272095 -0.5773502588272095
vn 0.5773502588272095 -0.5773502588272095 -0.5773502588272095
vn 0.5773502588272095 -0.5773502588272095 -0.5773502588272095
vn 0.5773502588272095 -0.5773502588272095 -0.5773502588272095
vn 0.5773502588272095 -0.5773502588272095 -0.5773502588272095
vn -0.5773502588272095 0.5773502588272095 -0.5773502588272095
vn -0.5773502588272095 0.5773502588272095 -0.5773502588272095
vn -0.5773502588272095 0.5773502588272095 -0.5773502588272095
vn -0.5773502588272095 0.5773502588272095 -0.5773502588272095
vn -0.5773502588272095 0.5773502588272095 -0.5773502588272095
vn -0.5773502588272095 0.5773502588272095 -0.5773502588272095
vn -0.5773502588272095 -0.5773502588272095 -0.5773502588272095
vn -0.5773502588272095 -0.5773502588272095 -0.5773502588272095
vn -0.5773502588272095 -0.5773502588272095 -0.5773502588272095
vn -0.5773502588272095 -0.5773502588272095 -0.5773502588272095
vn -0.5773502588272095 -0.5773502588272095 -0.5773502588272095
vn -0.5773502588272095 -0.5773502588272095 -0.5773502588272095
vn 0.5773502588272095 0.5773502588272095 0.5773502588272095
vn 0.5773502588272095 0.5773502588272095 0.5773502588272095
vn 0.5773502588272095 0.5773502588272095 0.5773502588272095
vn 0.5773502588272095 0.5773502588272095 0.5773502588272095
vn 0.5773502588272095 0.5773502588272095 0.5773502588272095
vn 0.5773502588272095 0.5773502588272095 0.5773502588272095
vn 0.5773502588272095 -0.5773502588272095 0.5773502588272095
vn 0.5773502588272095 -0.5773502588272095 0.5773502588272095
vn 0.5773502588272095 -0.5773502588272095 0.5773502588272095
vn 0.5773502588272095 -0.5773502588272095 0.5773502588272095
vn 0.5773502588272095 -0.5773502588272095 0.5773502588272095
vn 0.5773502588272095 -0.5773502588272095 0.5773502588272095
vn -0.5773502588272095 0.5773502588272095 0.5773502588272095
vn -0.5773502588272095 0.5773502588272095 0.5773502588272095
vn -0.5773502588272095 0.5773502588272095 0.5773502588272095
vn -0.5773502588272095 0.5773502588272095 0.5773502588272095
vn -0.5773502588272095 0.5773502588272095 0.5773502588272095
vn -0.5773502588272095 0.5773502588272095 0.5773502588272095
vn -0.5773502588272095 -0.5773502588272095 0.5773502588272095
vn -0.5773502588272095 -0.5773502588272095 0.5773502588272095
vn -0.5773502588272095 -0.5773502588272095 0.5773502588272095
vn -0.5773502588272095 -0.5773502588272095 0.5773502588272095
vn -0.5773502588272095 -0.5773502588272095 0.5773502588272095
vn -0.5773502588272095 -0.5773502588272095 0.5773502588272095
f 6/6/6 5/5/5 4/4/4
f 2/2/2 5/5/5 6/6/6
f 6/6/6 3/3/3 2/2/2
f 5/5/5 2/2/2 1/1/1
f 8/8/8 12/12/12 9/9/9
f 11/11/11 12/12/12 8/8/8
f 7/7/7 11/11/11 8/8/8
f 10/10/10 12/12/12 11/11/11
f 14/14/14 18/18/18 15/15/15
f 17/17/17 18/18/18 14/14/14
f 13/13/13 17/17/17 14/14/14
f 16/16/16 18/18/18 17/17/17
f 23/23/23 19/19/19 20/20/20
f 24/24/24 23/23/23 20/20/20
f 22/22/22 23/23/23 24/24/24
f 21/21/21 24/24/24 20/20/20
f 30/30/30 28/28/28 29/29/29
f 26/26/26 30/30/30 29/29/29
f 30/30/30 26/26/26 27/27/27
f 29/29/29 25/25/25 26/26/26
f 34/34/34 35/35/35 36/36/36
f 32/32/32 34/34/34 36/36/36
f 33/33/33 34/34/34 32/32/32
f 31/31/31 32/32/32 36/36/36
f 40/40/40 41/41/41 42/42/42
f 38/38/38 40/40/40 42/42/42
f 39/39/39 40/40/40 38/38/38
f 37/37/37 38/38/38 42/42/42
f 48/48/48 47/47/47 46/46/46
f 44/44/44 47/47/47 48/48/48
f 45/45/45 44/44/44 48/48/48
f 43/43/43 47/47/47 44/44/44
